<?xml version="1.0" encoding="utf-8"?>
<!-- Generator: Adobe Illustrator 24.3.0, SVG Export Plug-In . SVG Version: 6.00 Build 0)  -->
<svg version="1.1" id="Layer_1" xmlns="http://www.w3.org/2000/svg" xmlns:xlink="http://www.w3.org/1999/xlink" x="0px" y="0px"
	 viewBox="0 0 562.88 679.98" style="enable-background:new 0 0 562.88 679.98;" xml:space="preserve">
<style type="text/css">
	.st0{fill:url(#SVGID_1_);}
	.st1{fill:url(#SVGID_2_);}
	.st2{fill:url(#SVGID_3_);}
	.st3{fill:url(#SVGID_4_);}
	.st4{fill:url(#SVGID_5_);}
	.st5{fill:url(#SVGID_6_);}
	.st6{fill:url(#SVGID_7_);}
	.st7{fill:url(#SVGID_8_);}
	.st8{fill:url(#SVGID_9_);}
	.st9{fill:url(#SVGID_10_);}
	.st10{fill:url(#SVGID_11_);}
	.st11{fill:url(#SVGID_12_);}
	.st12{fill:url(#SVGID_13_);}
	.st13{fill:url(#SVGID_14_);}
	.st14{fill:url(#SVGID_15_);}
	.st15{fill:url(#SVGID_16_);}
	.st16{fill:url(#SVGID_17_);}
	.st17{fill:url(#SVGID_18_);}
	.st18{fill:url(#SVGID_19_);}
	.st19{fill:url(#SVGID_20_);}
	.st20{fill:url(#SVGID_21_);}
	.st21{fill:url(#SVGID_22_);}
	.st22{fill:url(#SVGID_23_);}
	.st23{fill:url(#SVGID_24_);}
	.st24{fill:url(#SVGID_25_);}
	.st25{fill:url(#SVGID_26_);}
	.st26{fill:url(#SVGID_27_);}
	.st27{fill:url(#SVGID_28_);}
	.st28{fill:url(#SVGID_29_);}
	.st29{fill:url(#SVGID_30_);}
	.st30{fill:url(#SVGID_31_);}
	.st31{fill:url(#SVGID_32_);}
	.st32{fill:url(#SVGID_33_);}
	.st33{fill:url(#SVGID_34_);}
	.st34{fill:url(#SVGID_35_);}
	.st35{fill:url(#SVGID_36_);}
	.st36{fill:url(#SVGID_37_);}
	.st37{fill:url(#SVGID_38_);}
	.st38{fill:url(#SVGID_39_);}
	.st39{fill:url(#SVGID_40_);}
	.st40{fill:url(#SVGID_41_);}
	.st41{fill:url(#SVGID_42_);}
	.st42{fill:url(#SVGID_43_);}
	.st43{fill:url(#SVGID_44_);}
	.st44{fill:url(#SVGID_45_);}
	.st45{fill:url(#SVGID_46_);}
	.st46{fill:url(#SVGID_47_);}
	.st47{fill:url(#SVGID_48_);}
	.st48{fill:url(#SVGID_49_);}
	.st49{fill:url(#SVGID_50_);}
	.st50{fill:url(#SVGID_51_);}
	.st51{fill:url(#SVGID_52_);}
	.st52{fill:url(#SVGID_53_);}
	.st53{fill:url(#SVGID_54_);}
	.st54{fill:url(#SVGID_55_);}
	.st55{fill:url(#SVGID_56_);}
	.st56{fill:url(#SVGID_57_);}
	.st57{fill:url(#SVGID_58_);}
	.st58{fill:url(#SVGID_59_);}
	.st59{fill:url(#SVGID_60_);}
	.st60{fill:url(#SVGID_61_);}
	.st61{fill:url(#SVGID_62_);}
	.st62{fill:url(#SVGID_63_);}
	.st63{fill:url(#SVGID_64_);}
	.st64{fill:url(#SVGID_65_);}
	.st65{fill:url(#SVGID_66_);}
	.st66{fill:url(#SVGID_67_);}
	.st67{fill:url(#SVGID_68_);}
	.st68{fill:url(#SVGID_69_);}
	.st69{fill:url(#SVGID_70_);}
	.st70{fill:url(#SVGID_71_);}
	.st71{fill:url(#SVGID_72_);}
	.st72{fill:url(#SVGID_73_);}
	.st73{fill:url(#SVGID_74_);}
	.st74{fill:url(#SVGID_75_);}
	.st75{fill:url(#SVGID_76_);}
</style>
<g>
	<linearGradient id="SVGID_1_" gradientUnits="userSpaceOnUse" x1="86.5033" y1="290.8373" x2="89.9065" y2="290.8373">
		<stop  offset="0" style="stop-color:#64CAF2"/>
		<stop  offset="0.0995" style="stop-color:#76CDEF"/>
		<stop  offset="0.3894" style="stop-color:#A4D5E9"/>
		<stop  offset="0.6466" style="stop-color:#C6DBE4"/>
		<stop  offset="0.8589" style="stop-color:#DBDFE1"/>
		<stop  offset="1" style="stop-color:#E2E0E0"/>
	</linearGradient>
	<polygon class="st0" points="89.55,285.48 86.5,295.45 89.91,296.19 	"/>
	<linearGradient id="SVGID_2_" gradientUnits="userSpaceOnUse" x1="85.3846" y1="297.2749" x2="89.9065" y2="297.2749">
		<stop  offset="0" style="stop-color:#64CAF2"/>
		<stop  offset="0.0995" style="stop-color:#76CDEF"/>
		<stop  offset="0.3894" style="stop-color:#A4D5E9"/>
		<stop  offset="0.6466" style="stop-color:#C6DBE4"/>
		<stop  offset="0.8589" style="stop-color:#DBDFE1"/>
		<stop  offset="1" style="stop-color:#E2E0E0"/>
	</linearGradient>
	<polygon class="st1" points="86.5,295.45 85.38,299.1 89.91,296.19 	"/>
	<linearGradient id="SVGID_3_" gradientUnits="userSpaceOnUse" x1="41.5609" y1="463.0274" x2="56.0593" y2="463.0274">
		<stop  offset="0" style="stop-color:#64CAF2"/>
		<stop  offset="0.0995" style="stop-color:#76CDEF"/>
		<stop  offset="0.3894" style="stop-color:#A4D5E9"/>
		<stop  offset="0.6466" style="stop-color:#C6DBE4"/>
		<stop  offset="0.8589" style="stop-color:#DBDFE1"/>
		<stop  offset="1" style="stop-color:#E2E0E0"/>
	</linearGradient>
	<path class="st2" d="M42.9,451.75c-0.82,7.24-1.26,14.35-1.34,21.34l14.5,1.23L42.9,451.75z"/>
	<linearGradient id="SVGID_4_" gradientUnits="userSpaceOnUse" x1="433.2025" y1="453.177" x2="487.4417" y2="453.177">
		<stop  offset="0" style="stop-color:#64CAF2"/>
		<stop  offset="0.0995" style="stop-color:#76CDEF"/>
		<stop  offset="0.3894" style="stop-color:#A4D5E9"/>
		<stop  offset="0.6466" style="stop-color:#C6DBE4"/>
		<stop  offset="0.8589" style="stop-color:#DBDFE1"/>
		<stop  offset="1" style="stop-color:#E2E0E0"/>
	</linearGradient>
	<path class="st3" d="M438.3,462.24l47.03,4.51c0.69-1.21,1.44-2.39,2.11-3.6l-16.37-23.55l-37.87,15.3L438.3,462.24z"/>
	<linearGradient id="SVGID_5_" gradientUnits="userSpaceOnUse" x1="519.8235" y1="335.6639" x2="521.3649" y2="335.6639">
		<stop  offset="0" style="stop-color:#64CAF2"/>
		<stop  offset="0.0995" style="stop-color:#76CDEF"/>
		<stop  offset="0.3894" style="stop-color:#A4D5E9"/>
		<stop  offset="0.6466" style="stop-color:#C6DBE4"/>
		<stop  offset="0.8589" style="stop-color:#DBDFE1"/>
		<stop  offset="1" style="stop-color:#E2E0E0"/>
	</linearGradient>
	<path class="st4" d="M521.33,344.56c0.11-6.04-0.06-11.97-0.5-17.79l-1.02,11.72C520.33,340.51,520.91,342.5,521.33,344.56z"/>
	<linearGradient id="SVGID_6_" gradientUnits="userSpaceOnUse" x1="325.2409" y1="215.1216" x2="366.1393" y2="215.1216">
		<stop  offset="0" style="stop-color:#64CAF2"/>
		<stop  offset="0.0995" style="stop-color:#76CDEF"/>
		<stop  offset="0.3894" style="stop-color:#A4D5E9"/>
		<stop  offset="0.6466" style="stop-color:#C6DBE4"/>
		<stop  offset="0.8589" style="stop-color:#DBDFE1"/>
		<stop  offset="1" style="stop-color:#E2E0E0"/>
	</linearGradient>
	<path class="st5" d="M328.06,250.64l38.08-71.35c-4.77-0.31-9.59-0.51-14.53-0.51c-1.75,0-3.5,0.15-5.25,0.18l-21.11,72.52
		C326.18,251.2,327.12,250.9,328.06,250.64z"/>
	<linearGradient id="SVGID_7_" gradientUnits="userSpaceOnUse" x1="51.3525" y1="353.4059" x2="132.632" y2="353.4059">
		<stop  offset="0" style="stop-color:#64CAF2"/>
		<stop  offset="0.0995" style="stop-color:#76CDEF"/>
		<stop  offset="0.3894" style="stop-color:#A4D5E9"/>
		<stop  offset="0.6466" style="stop-color:#C6DBE4"/>
		<stop  offset="0.8589" style="stop-color:#DBDFE1"/>
		<stop  offset="1" style="stop-color:#E2E0E0"/>
	</linearGradient>
	<path class="st6" d="M89.91,296.19l-7.65,13.14L52.03,408.2c-0.25,0.81-0.44,1.61-0.68,2.42l81.28-10.11L89.91,296.19z"/>
	<linearGradient id="SVGID_8_" gradientUnits="userSpaceOnUse" x1="82.6932" y1="464.0429" x2="144.1881" y2="464.0429">
		<stop  offset="0" style="stop-color:#64CAF2"/>
		<stop  offset="0.0995" style="stop-color:#76CDEF"/>
		<stop  offset="0.3894" style="stop-color:#A4D5E9"/>
		<stop  offset="0.6466" style="stop-color:#C6DBE4"/>
		<stop  offset="0.8589" style="stop-color:#DBDFE1"/>
		<stop  offset="1" style="stop-color:#E2E0E0"/>
	</linearGradient>
	<path class="st7" d="M82.69,527.58l51.57-21.44c-3.34-23.37-1.31-49.26,7.03-76.54c0.9-2.93,1.87-5.84,2.89-8.73l-11.56-20.35
		L82.69,527.58z"/>
	<linearGradient id="SVGID_9_" gradientUnits="userSpaceOnUse" x1="132.8627" y1="471.0159" x2="181.461" y2="471.0159">
		<stop  offset="0" style="stop-color:#64CAF2"/>
		<stop  offset="0.0995" style="stop-color:#76CDEF"/>
		<stop  offset="0.3894" style="stop-color:#A4D5E9"/>
		<stop  offset="0.6466" style="stop-color:#C6DBE4"/>
		<stop  offset="0.8589" style="stop-color:#DBDFE1"/>
		<stop  offset="1" style="stop-color:#E2E0E0"/>
	</linearGradient>
	<path class="st8" d="M160.13,448.95l-26.74,20.67c-0.23,2.64-0.42,5.27-0.53,7.86h37.56l-4.77,15.61l15.81-6.57L160.13,448.95z"/>
	<linearGradient id="SVGID_10_" gradientUnits="userSpaceOnUse" x1="160.1309" y1="462.5709" x2="181.461" y2="462.5709">
		<stop  offset="0" style="stop-color:#64CAF2"/>
		<stop  offset="0.0995" style="stop-color:#76CDEF"/>
		<stop  offset="0.3894" style="stop-color:#A4D5E9"/>
		<stop  offset="0.6466" style="stop-color:#C6DBE4"/>
		<stop  offset="0.8589" style="stop-color:#DBDFE1"/>
		<stop  offset="1" style="stop-color:#E2E0E0"/>
	</linearGradient>
	<polygon class="st9" points="173.48,438.63 160.13,448.95 181.46,486.52 	"/>
	<linearGradient id="SVGID_11_" gradientUnits="userSpaceOnUse" x1="132.632" y1="410.6871" x2="150.4084" y2="410.6871">
		<stop  offset="0" style="stop-color:#64CAF2"/>
		<stop  offset="0.0995" style="stop-color:#76CDEF"/>
		<stop  offset="0.3894" style="stop-color:#A4D5E9"/>
		<stop  offset="0.6466" style="stop-color:#C6DBE4"/>
		<stop  offset="0.8589" style="stop-color:#DBDFE1"/>
		<stop  offset="1" style="stop-color:#E2E0E0"/>
	</linearGradient>
	<path class="st10" d="M144.19,420.86c1.86-5.3,3.96-10.53,6.22-15.71l-17.78-4.65L144.19,420.86z"/>
	<linearGradient id="SVGID_12_" gradientUnits="userSpaceOnUse" x1="304.8239" y1="553.9983" x2="321.1193" y2="553.9983">
		<stop  offset="0" style="stop-color:#64CAF2"/>
		<stop  offset="0.0995" style="stop-color:#76CDEF"/>
		<stop  offset="0.3894" style="stop-color:#A4D5E9"/>
		<stop  offset="0.6466" style="stop-color:#C6DBE4"/>
		<stop  offset="0.8589" style="stop-color:#DBDFE1"/>
		<stop  offset="1" style="stop-color:#E2E0E0"/>
	</linearGradient>
	<polygon class="st11" points="304.82,570.51 321.12,570.51 314.92,537.49 	"/>
	<linearGradient id="SVGID_13_" gradientUnits="userSpaceOnUse" x1="215.8633" y1="472.7143" x2="303.6596" y2="472.7143">
		<stop  offset="0" style="stop-color:#64CAF2"/>
		<stop  offset="0.0995" style="stop-color:#76CDEF"/>
		<stop  offset="0.3894" style="stop-color:#A4D5E9"/>
		<stop  offset="0.6466" style="stop-color:#C6DBE4"/>
		<stop  offset="0.8589" style="stop-color:#DBDFE1"/>
		<stop  offset="1" style="stop-color:#E2E0E0"/>
	</linearGradient>
	<polygon class="st12" points="278.53,396.75 215.86,522.58 264.29,548.68 286.06,477.48 303.66,477.48 292.33,417.1 	"/>
	<g>
		<linearGradient id="SVGID_14_" gradientUnits="userSpaceOnUse" x1="162.4559" y1="113.4466" x2="242.5552" y2="113.4466">
			<stop  offset="0" style="stop-color:#64CAF2"/>
			<stop  offset="0.0995" style="stop-color:#76CDEF"/>
			<stop  offset="0.3894" style="stop-color:#A4D5E9"/>
			<stop  offset="0.6466" style="stop-color:#C6DBE4"/>
			<stop  offset="0.8589" style="stop-color:#DBDFE1"/>
			<stop  offset="1" style="stop-color:#E2E0E0"/>
		</linearGradient>
		<path class="st13" d="M242.56,139.76l-18.37-25.01l-54.35-38.43c-2.56,2.46-5.03,5-7.38,7.65l76.79,66.6L242.56,139.76z"/>
		<linearGradient id="SVGID_15_" gradientUnits="userSpaceOnUse" x1="82.258" y1="302.7621" x2="89.9065" y2="302.7621">
			<stop  offset="0" style="stop-color:#64CAF2"/>
			<stop  offset="0.0995" style="stop-color:#76CDEF"/>
			<stop  offset="0.3894" style="stop-color:#A4D5E9"/>
			<stop  offset="0.6466" style="stop-color:#C6DBE4"/>
			<stop  offset="0.8589" style="stop-color:#DBDFE1"/>
			<stop  offset="1" style="stop-color:#E2E0E0"/>
		</linearGradient>
		<polygon class="st14" points="85.38,299.1 82.26,309.33 89.91,296.19 		"/>
		<linearGradient id="SVGID_16_" gradientUnits="userSpaceOnUse" x1="429.4044" y1="436.9597" x2="471.0688" y2="436.9597">
			<stop  offset="0" style="stop-color:#64CAF2"/>
			<stop  offset="0.0995" style="stop-color:#76CDEF"/>
			<stop  offset="0.3894" style="stop-color:#A4D5E9"/>
			<stop  offset="0.6466" style="stop-color:#C6DBE4"/>
			<stop  offset="0.8589" style="stop-color:#DBDFE1"/>
			<stop  offset="1" style="stop-color:#E2E0E0"/>
		</linearGradient>
		<polygon class="st15" points="429.4,449.43 433.2,454.9 471.07,439.6 456.76,419.02 		"/>
		<linearGradient id="SVGID_17_" gradientUnits="userSpaceOnUse" x1="113.271" y1="172.6337" x2="234.2846" y2="172.6337">
			<stop  offset="0" style="stop-color:#64CAF2"/>
			<stop  offset="0.0995" style="stop-color:#76CDEF"/>
			<stop  offset="0.3894" style="stop-color:#A4D5E9"/>
			<stop  offset="0.6466" style="stop-color:#C6DBE4"/>
			<stop  offset="0.8589" style="stop-color:#DBDFE1"/>
			<stop  offset="1" style="stop-color:#E2E0E0"/>
		</linearGradient>
		<polygon class="st16" points="234.28,166.81 134.83,137.38 113.27,207.89 228.56,185.53 		"/>
		<linearGradient id="SVGID_18_" gradientUnits="userSpaceOnUse" x1="42.8983" y1="437.4089" x2="132.632" y2="437.4089">
			<stop  offset="0" style="stop-color:#64CAF2"/>
			<stop  offset="0.0995" style="stop-color:#76CDEF"/>
			<stop  offset="0.3894" style="stop-color:#A4D5E9"/>
			<stop  offset="0.6466" style="stop-color:#C6DBE4"/>
			<stop  offset="0.8589" style="stop-color:#DBDFE1"/>
			<stop  offset="1" style="stop-color:#E2E0E0"/>
		</linearGradient>
		<path class="st17" d="M132.63,400.51l-81.28,10.11c-4.15,14.05-6.94,27.79-8.45,41.13l13.16,22.56L132.63,400.51z"/>
		<linearGradient id="SVGID_19_" gradientUnits="userSpaceOnUse" x1="82.6932" y1="582.601" x2="229.6909" y2="582.601">
			<stop  offset="0" style="stop-color:#64CAF2"/>
			<stop  offset="0.0995" style="stop-color:#76CDEF"/>
			<stop  offset="0.3894" style="stop-color:#A4D5E9"/>
			<stop  offset="0.6466" style="stop-color:#C6DBE4"/>
			<stop  offset="0.8589" style="stop-color:#DBDFE1"/>
			<stop  offset="1" style="stop-color:#E2E0E0"/>
		</linearGradient>
		<path class="st18" d="M222.52,627.45L82.69,527.58l126.84,110c0.6,0,1.18,0.05,1.78,0.05c6.11,0,12.24-0.31,18.37-0.78
			L222.52,627.45z"/>
		<linearGradient id="SVGID_20_" gradientUnits="userSpaceOnUse" x1="304.0744" y1="613.2271" x2="336.7888" y2="613.2271">
			<stop  offset="0" style="stop-color:#64CAF2"/>
			<stop  offset="0.0995" style="stop-color:#76CDEF"/>
			<stop  offset="0.3894" style="stop-color:#A4D5E9"/>
			<stop  offset="0.6466" style="stop-color:#C6DBE4"/>
			<stop  offset="0.8589" style="stop-color:#DBDFE1"/>
			<stop  offset="1" style="stop-color:#E2E0E0"/>
		</linearGradient>
		<path class="st19" d="M336.79,606.2c-9.76,3.11-19.63,5.54-29.53,7.32l-3.19,6.74C315.14,616.2,326.08,611.52,336.79,606.2z"/>
		<linearGradient id="SVGID_21_" gradientUnits="userSpaceOnUse" x1="289.1859" y1="334.4556" x2="366.2344" y2="334.4556">
			<stop  offset="0" style="stop-color:#64CAF2"/>
			<stop  offset="0.0995" style="stop-color:#76CDEF"/>
			<stop  offset="0.3894" style="stop-color:#A4D5E9"/>
			<stop  offset="0.6466" style="stop-color:#C6DBE4"/>
			<stop  offset="0.8589" style="stop-color:#DBDFE1"/>
			<stop  offset="1" style="stop-color:#E2E0E0"/>
		</linearGradient>
		<polygon class="st20" points="298.24,370.94 366.23,309.51 355.76,297.97 297.75,342.66 289.19,370.94 		"/>
	</g>
	<linearGradient id="SVGID_22_" gradientUnits="userSpaceOnUse" x1="366.2344" y1="369.7781" x2="420.6514" y2="369.7781">
		<stop  offset="0" style="stop-color:#64CAF2"/>
		<stop  offset="0.0995" style="stop-color:#76CDEF"/>
		<stop  offset="0.3894" style="stop-color:#A4D5E9"/>
		<stop  offset="0.6466" style="stop-color:#C6DBE4"/>
		<stop  offset="0.8589" style="stop-color:#DBDFE1"/>
		<stop  offset="1" style="stop-color:#E2E0E0"/>
	</linearGradient>
	<polygon class="st21" points="401.35,409.01 419.81,435.6 420.65,367.09 376.76,303.96 366.23,309.51 	"/>
	<linearGradient id="SVGID_23_" gradientUnits="userSpaceOnUse" x1="366.2344" y1="306.7245" x2="376.7572" y2="306.7245">
		<stop  offset="0" style="stop-color:#64CAF2"/>
		<stop  offset="0.0995" style="stop-color:#76CDEF"/>
		<stop  offset="0.3894" style="stop-color:#A4D5E9"/>
		<stop  offset="0.6466" style="stop-color:#C6DBE4"/>
		<stop  offset="0.8589" style="stop-color:#DBDFE1"/>
		<stop  offset="1" style="stop-color:#E2E0E0"/>
	</linearGradient>
	<polygon class="st22" points="376.76,303.96 376.75,303.94 366.23,309.51 	"/>
	<linearGradient id="SVGID_24_" gradientUnits="userSpaceOnUse" x1="413.9539" y1="500.031" x2="433.3746" y2="500.031">
		<stop  offset="0" style="stop-color:#64CAF2"/>
		<stop  offset="0.0995" style="stop-color:#76CDEF"/>
		<stop  offset="0.3894" style="stop-color:#A4D5E9"/>
		<stop  offset="0.6466" style="stop-color:#C6DBE4"/>
		<stop  offset="0.8589" style="stop-color:#DBDFE1"/>
		<stop  offset="1" style="stop-color:#E2E0E0"/>
	</linearGradient>
	<polygon class="st23" points="433.37,502.61 425.11,477.48 417.98,477.48 413.95,522.58 	"/>
	<linearGradient id="SVGID_25_" gradientUnits="userSpaceOnUse" x1="328.0566" y1="214.9587" x2="490.2334" y2="214.9587">
		<stop  offset="0" style="stop-color:#64CAF2"/>
		<stop  offset="0.0995" style="stop-color:#76CDEF"/>
		<stop  offset="0.3894" style="stop-color:#A4D5E9"/>
		<stop  offset="0.6466" style="stop-color:#C6DBE4"/>
		<stop  offset="0.8589" style="stop-color:#DBDFE1"/>
		<stop  offset="1" style="stop-color:#E2E0E0"/>
	</linearGradient>
	<path class="st24" d="M385.78,242.36c16.54,0,31.85,2.24,45.88,6.27l58.57-6.76c-2.21-2.97-4.54-5.84-6.97-8.63l-68.38-44.75
		c-14.96-4.96-31.27-8.08-48.74-9.21l-38.08,71.35C347.15,245.26,366.57,242.36,385.78,242.36z"/>
	<linearGradient id="SVGID_26_" gradientUnits="userSpaceOnUse" x1="298.2378" y1="359.2577" x2="401.3507" y2="359.2577">
		<stop  offset="0" style="stop-color:#64CAF2"/>
		<stop  offset="0.0995" style="stop-color:#76CDEF"/>
		<stop  offset="0.3894" style="stop-color:#A4D5E9"/>
		<stop  offset="0.6466" style="stop-color:#C6DBE4"/>
		<stop  offset="0.8589" style="stop-color:#DBDFE1"/>
		<stop  offset="1" style="stop-color:#E2E0E0"/>
	</linearGradient>
	<polygon class="st25" points="298.24,370.94 374.93,370.94 401.35,409.01 366.23,309.51 	"/>
	<linearGradient id="SVGID_27_" gradientUnits="userSpaceOnUse" x1="413.9539" y1="512.5945" x2="440.4426" y2="512.5945">
		<stop  offset="0" style="stop-color:#64CAF2"/>
		<stop  offset="0.0995" style="stop-color:#76CDEF"/>
		<stop  offset="0.3894" style="stop-color:#A4D5E9"/>
		<stop  offset="0.6466" style="stop-color:#C6DBE4"/>
		<stop  offset="0.8589" style="stop-color:#DBDFE1"/>
		<stop  offset="1" style="stop-color:#E2E0E0"/>
	</linearGradient>
	<polygon class="st26" points="413.95,522.58 435.08,522.58 440.44,505.05 433.37,502.61 	"/>
	<linearGradient id="SVGID_28_" gradientUnits="userSpaceOnUse" x1="338.3731" y1="546.5469" x2="435.0835" y2="546.5469">
		<stop  offset="0" style="stop-color:#64CAF2"/>
		<stop  offset="0.0995" style="stop-color:#76CDEF"/>
		<stop  offset="0.3894" style="stop-color:#A4D5E9"/>
		<stop  offset="0.6466" style="stop-color:#C6DBE4"/>
		<stop  offset="0.8589" style="stop-color:#DBDFE1"/>
		<stop  offset="1" style="stop-color:#E2E0E0"/>
	</linearGradient>
	<path class="st27" d="M338.37,570.51h13.07l71.13-24.41c2.55-2.41,5.08-4.84,7.56-7.32l4.95-16.2h-21.13L338.37,570.51z"/>
	<linearGradient id="SVGID_29_" gradientUnits="userSpaceOnUse" x1="156.4916" y1="337.5825" x2="202.2753" y2="337.5825">
		<stop  offset="0" style="stop-color:#64CAF2"/>
		<stop  offset="0.0995" style="stop-color:#76CDEF"/>
		<stop  offset="0.3894" style="stop-color:#A4D5E9"/>
		<stop  offset="0.6466" style="stop-color:#C6DBE4"/>
		<stop  offset="0.8589" style="stop-color:#DBDFE1"/>
		<stop  offset="1" style="stop-color:#E2E0E0"/>
	</linearGradient>
	<path class="st28" d="M165.07,376.75c10.44-17.42,23.01-33.76,37.21-48.67l-45.78-29.67L165.07,376.75z"/>
	<linearGradient id="SVGID_30_" gradientUnits="userSpaceOnUse" x1="261.0323" y1="369.6434" x2="268.4068" y2="369.6434">
		<stop  offset="0" style="stop-color:#64CAF2"/>
		<stop  offset="0.0995" style="stop-color:#76CDEF"/>
		<stop  offset="0.3894" style="stop-color:#A4D5E9"/>
		<stop  offset="0.6466" style="stop-color:#C6DBE4"/>
		<stop  offset="0.8589" style="stop-color:#DBDFE1"/>
		<stop  offset="1" style="stop-color:#E2E0E0"/>
	</linearGradient>
	<polygon class="st29" points="264.4,368.35 261.03,370.94 268.41,370.94 	"/>
	<linearGradient id="SVGID_31_" gradientUnits="userSpaceOnUse" x1="229.0965" y1="383.2857" x2="271.0339" y2="383.2857">
		<stop  offset="0" style="stop-color:#64CAF2"/>
		<stop  offset="0.0995" style="stop-color:#76CDEF"/>
		<stop  offset="0.3894" style="stop-color:#A4D5E9"/>
		<stop  offset="0.6466" style="stop-color:#C6DBE4"/>
		<stop  offset="0.8589" style="stop-color:#DBDFE1"/>
		<stop  offset="1" style="stop-color:#E2E0E0"/>
	</linearGradient>
	<polygon class="st30" points="261.03,370.94 229.1,395.63 271.03,385.69 	"/>
	<linearGradient id="SVGID_32_" gradientUnits="userSpaceOnUse" x1="169.8362" y1="80.8327" x2="224.1865" y2="80.8327">
		<stop  offset="0" style="stop-color:#64CAF2"/>
		<stop  offset="0.0995" style="stop-color:#76CDEF"/>
		<stop  offset="0.3894" style="stop-color:#A4D5E9"/>
		<stop  offset="0.6466" style="stop-color:#C6DBE4"/>
		<stop  offset="0.8589" style="stop-color:#DBDFE1"/>
		<stop  offset="1" style="stop-color:#E2E0E0"/>
	</linearGradient>
	<path class="st31" d="M218.86,46.92c-17.87,5.55-34.94,15.91-49.02,29.4l54.35,38.43L218.86,46.92z"/>
	<linearGradient id="SVGID_33_" gradientUnits="userSpaceOnUse" x1="41.5162" y1="475.2313" x2="56.0593" y2="475.2313">
		<stop  offset="0" style="stop-color:#64CAF2"/>
		<stop  offset="0.0995" style="stop-color:#76CDEF"/>
		<stop  offset="0.3894" style="stop-color:#A4D5E9"/>
		<stop  offset="0.6466" style="stop-color:#C6DBE4"/>
		<stop  offset="0.8589" style="stop-color:#DBDFE1"/>
		<stop  offset="1" style="stop-color:#E2E0E0"/>
	</linearGradient>
	<path class="st32" d="M41.56,473.08c-0.02,1.43-0.06,2.88-0.04,4.3l14.54-3.07L41.56,473.08z"/>
	<linearGradient id="SVGID_34_" gradientUnits="userSpaceOnUse" x1="41.7092" y1="500.9421" x2="82.6932" y2="500.9421">
		<stop  offset="0" style="stop-color:#64CAF2"/>
		<stop  offset="0.0995" style="stop-color:#76CDEF"/>
		<stop  offset="0.3894" style="stop-color:#A4D5E9"/>
		<stop  offset="0.6466" style="stop-color:#C6DBE4"/>
		<stop  offset="0.8589" style="stop-color:#DBDFE1"/>
		<stop  offset="1" style="stop-color:#E2E0E0"/>
	</linearGradient>
	<path class="st33" d="M56.06,474.31l-14.35,8.89c0.6,14.98,2.89,29.26,6.81,42.65l34.17,1.72L56.06,474.31z"/>
	<linearGradient id="SVGID_35_" gradientUnits="userSpaceOnUse" x1="425.109" y1="490.0432" x2="448.8727" y2="490.0432">
		<stop  offset="0" style="stop-color:#64CAF2"/>
		<stop  offset="0.0995" style="stop-color:#76CDEF"/>
		<stop  offset="0.3894" style="stop-color:#A4D5E9"/>
		<stop  offset="0.6466" style="stop-color:#C6DBE4"/>
		<stop  offset="0.8589" style="stop-color:#DBDFE1"/>
		<stop  offset="1" style="stop-color:#E2E0E0"/>
	</linearGradient>
	<polygon class="st34" points="433.37,502.61 441.74,500.82 448.87,477.48 425.11,477.48 	"/>
	<linearGradient id="SVGID_36_" gradientUnits="userSpaceOnUse" x1="438.2958" y1="469.8597" x2="485.3284" y2="469.8597">
		<stop  offset="0" style="stop-color:#64CAF2"/>
		<stop  offset="0.0995" style="stop-color:#76CDEF"/>
		<stop  offset="0.3894" style="stop-color:#A4D5E9"/>
		<stop  offset="0.6466" style="stop-color:#C6DBE4"/>
		<stop  offset="0.8589" style="stop-color:#DBDFE1"/>
		<stop  offset="1" style="stop-color:#E2E0E0"/>
	</linearGradient>
	<path class="st35" d="M448.87,477.48h30.16c2.2-3.53,4.24-7.13,6.29-10.73l-47.03-4.51L448.87,477.48z"/>
	<linearGradient id="SVGID_37_" gradientUnits="userSpaceOnUse" x1="224.1865" y1="120.0323" x2="254.6159" y2="120.0323">
		<stop  offset="0" style="stop-color:#64CAF2"/>
		<stop  offset="0.0995" style="stop-color:#76CDEF"/>
		<stop  offset="0.3894" style="stop-color:#A4D5E9"/>
		<stop  offset="0.6466" style="stop-color:#C6DBE4"/>
		<stop  offset="0.8589" style="stop-color:#DBDFE1"/>
		<stop  offset="1" style="stop-color:#E2E0E0"/>
	</linearGradient>
	<polygon class="st36" points="242.56,139.76 254.62,100.31 224.19,114.75 	"/>
	<linearGradient id="SVGID_38_" gradientUnits="userSpaceOnUse" x1="431.666" y1="250.9757" x2="491.4187" y2="250.9757">
		<stop  offset="0" style="stop-color:#64CAF2"/>
		<stop  offset="0.0995" style="stop-color:#76CDEF"/>
		<stop  offset="0.3894" style="stop-color:#A4D5E9"/>
		<stop  offset="0.6466" style="stop-color:#C6DBE4"/>
		<stop  offset="0.8589" style="stop-color:#DBDFE1"/>
		<stop  offset="1" style="stop-color:#E2E0E0"/>
	</linearGradient>
	<path class="st37" d="M459.76,260.08l31.66-16.66c-0.38-0.53-0.8-1.03-1.19-1.55l-58.57,6.76
		C441.74,251.52,451.13,255.35,459.76,260.08z"/>
	<linearGradient id="SVGID_39_" gradientUnits="userSpaceOnUse" x1="355.7557" y1="299.5159" x2="376.746" y2="299.5159">
		<stop  offset="0" style="stop-color:#64CAF2"/>
		<stop  offset="0.0995" style="stop-color:#76CDEF"/>
		<stop  offset="0.3894" style="stop-color:#A4D5E9"/>
		<stop  offset="0.6466" style="stop-color:#C6DBE4"/>
		<stop  offset="0.8589" style="stop-color:#DBDFE1"/>
		<stop  offset="1" style="stop-color:#E2E0E0"/>
	</linearGradient>
	<polygon class="st38" points="376.75,303.94 366.72,289.52 355.76,297.97 366.23,309.51 	"/>
	<linearGradient id="SVGID_40_" gradientUnits="userSpaceOnUse" x1="148.2961" y1="546.5469" x2="218.9066" y2="546.5469">
		<stop  offset="0" style="stop-color:#64CAF2"/>
		<stop  offset="0.0995" style="stop-color:#76CDEF"/>
		<stop  offset="0.3894" style="stop-color:#A4D5E9"/>
		<stop  offset="0.6466" style="stop-color:#C6DBE4"/>
		<stop  offset="0.8589" style="stop-color:#DBDFE1"/>
		<stop  offset="1" style="stop-color:#E2E0E0"/>
	</linearGradient>
	<path class="st39" d="M155.95,524.83l-7.65,25.04c3.95,7.4,8.62,14.29,13.94,20.65h56.67l-3.04-47.93L155.95,524.83z"/>
	<linearGradient id="SVGID_41_" gradientUnits="userSpaceOnUse" x1="82.6932" y1="576.4703" x2="222.5219" y2="576.4703">
		<stop  offset="0" style="stop-color:#64CAF2"/>
		<stop  offset="0.0995" style="stop-color:#76CDEF"/>
		<stop  offset="0.3894" style="stop-color:#A4D5E9"/>
		<stop  offset="0.6466" style="stop-color:#C6DBE4"/>
		<stop  offset="0.8589" style="stop-color:#DBDFE1"/>
		<stop  offset="1" style="stop-color:#E2E0E0"/>
	</linearGradient>
	<path class="st40" d="M222.52,627.45l-1.15-18.04c-41.88-13.31-71.25-43.72-82.98-83.92l-55.71,2.09L222.52,627.45z"/>
	<linearGradient id="SVGID_42_" gradientUnits="userSpaceOnUse" x1="222.5219" y1="625.1811" x2="307.2596" y2="625.1811">
		<stop  offset="0" style="stop-color:#64CAF2"/>
		<stop  offset="0.0995" style="stop-color:#76CDEF"/>
		<stop  offset="0.3894" style="stop-color:#A4D5E9"/>
		<stop  offset="0.6466" style="stop-color:#C6DBE4"/>
		<stop  offset="0.8589" style="stop-color:#DBDFE1"/>
		<stop  offset="1" style="stop-color:#E2E0E0"/>
	</linearGradient>
	<path class="st41" d="M229.69,636.85c24.96-1.92,50.01-7.64,74.38-16.59l3.19-6.74c-11.98,2.15-24.01,3.32-35.97,3.32
		c-7.93,0-15.57-0.55-22.95-1.51l-25.82,12.13L229.69,636.85z"/>
	<linearGradient id="SVGID_43_" gradientUnits="userSpaceOnUse" x1="104.9936" y1="241.973" x2="249.1403" y2="241.973">
		<stop  offset="0" style="stop-color:#64CAF2"/>
		<stop  offset="0.0995" style="stop-color:#76CDEF"/>
		<stop  offset="0.3894" style="stop-color:#A4D5E9"/>
		<stop  offset="0.6466" style="stop-color:#C6DBE4"/>
		<stop  offset="0.8589" style="stop-color:#DBDFE1"/>
		<stop  offset="1" style="stop-color:#E2E0E0"/>
	</linearGradient>
	<path class="st42" d="M249.14,199.89c-9.83,3.98-19.54,8.41-29.06,13.38l8.48-27.74l-115.29,22.36l-8.28,27.07l51.5,63.45
		L249.14,199.89z"/>
	<linearGradient id="SVGID_44_" gradientUnits="userSpaceOnUse" x1="218.8592" y1="78.5496" x2="272.3354" y2="78.5496">
		<stop  offset="0" style="stop-color:#64CAF2"/>
		<stop  offset="0.0995" style="stop-color:#76CDEF"/>
		<stop  offset="0.3894" style="stop-color:#A4D5E9"/>
		<stop  offset="0.6466" style="stop-color:#C6DBE4"/>
		<stop  offset="0.8589" style="stop-color:#DBDFE1"/>
		<stop  offset="1" style="stop-color:#E2E0E0"/>
	</linearGradient>
	<path class="st43" d="M254.62,100.31l17.72-57.96h-25.05c-9.48,0-19.05,1.66-28.43,4.57l5.33,67.83L254.62,100.31z"/>
	<linearGradient id="SVGID_45_" gradientUnits="userSpaceOnUse" x1="60.5575" y1="559.7521" x2="87.8671" y2="559.7521">
		<stop  offset="0" style="stop-color:#64CAF2"/>
		<stop  offset="0.0995" style="stop-color:#76CDEF"/>
		<stop  offset="0.3894" style="stop-color:#A4D5E9"/>
		<stop  offset="0.6466" style="stop-color:#C6DBE4"/>
		<stop  offset="0.8589" style="stop-color:#DBDFE1"/>
		<stop  offset="1" style="stop-color:#E2E0E0"/>
	</linearGradient>
	<path class="st44" d="M60.56,555.48c7.23,13.57,16.37,25.82,27.31,36.45l-5.17-64.35L60.56,555.48z"/>
	<linearGradient id="SVGID_46_" gradientUnits="userSpaceOnUse" x1="414.8819" y1="210.8661" x2="483.2636" y2="210.8661">
		<stop  offset="0" style="stop-color:#64CAF2"/>
		<stop  offset="0.0995" style="stop-color:#76CDEF"/>
		<stop  offset="0.3894" style="stop-color:#A4D5E9"/>
		<stop  offset="0.6466" style="stop-color:#C6DBE4"/>
		<stop  offset="0.8589" style="stop-color:#DBDFE1"/>
		<stop  offset="1" style="stop-color:#E2E0E0"/>
	</linearGradient>
	<path class="st45" d="M414.88,188.49l68.38,44.75C465.71,213.11,442.6,197.69,414.88,188.49z"/>
	<linearGradient id="SVGID_47_" gradientUnits="userSpaceOnUse" x1="277.9796" y1="216.3652" x2="346.3552" y2="216.3652">
		<stop  offset="0" style="stop-color:#64CAF2"/>
		<stop  offset="0.0995" style="stop-color:#76CDEF"/>
		<stop  offset="0.3894" style="stop-color:#A4D5E9"/>
		<stop  offset="0.6466" style="stop-color:#C6DBE4"/>
		<stop  offset="0.8589" style="stop-color:#DBDFE1"/>
		<stop  offset="1" style="stop-color:#E2E0E0"/>
	</linearGradient>
	<path class="st46" d="M325.24,251.48l21.11-72.52c-22.81,0.51-45.78,4.3-68.38,10.93l39.78,63.9
		C320.24,252.96,322.74,252.21,325.24,251.48z"/>
	<linearGradient id="SVGID_48_" gradientUnits="userSpaceOnUse" x1="89.5496" y1="266.6896" x2="156.4916" y2="266.6896">
		<stop  offset="0" style="stop-color:#64CAF2"/>
		<stop  offset="0.0995" style="stop-color:#76CDEF"/>
		<stop  offset="0.3894" style="stop-color:#A4D5E9"/>
		<stop  offset="0.6466" style="stop-color:#C6DBE4"/>
		<stop  offset="0.8589" style="stop-color:#DBDFE1"/>
		<stop  offset="1" style="stop-color:#E2E0E0"/>
	</linearGradient>
	<polygon class="st47" points="156.49,298.41 104.99,234.97 89.55,285.48 89.91,296.19 	"/>
	<linearGradient id="SVGID_49_" gradientUnits="userSpaceOnUse" x1="89.9065" y1="350.6758" x2="156.4476" y2="350.6758">
		<stop  offset="0" style="stop-color:#64CAF2"/>
		<stop  offset="0.0995" style="stop-color:#76CDEF"/>
		<stop  offset="0.3894" style="stop-color:#A4D5E9"/>
		<stop  offset="0.6466" style="stop-color:#C6DBE4"/>
		<stop  offset="0.8589" style="stop-color:#DBDFE1"/>
		<stop  offset="1" style="stop-color:#E2E0E0"/>
	</linearGradient>
	<path class="st48" d="M132.63,400.51l17.78,4.65c1.9-4.34,3.88-8.66,6.04-12.9l-66.54-96.06L132.63,400.51z"/>
	<linearGradient id="SVGID_50_" gradientUnits="userSpaceOnUse" x1="56.0593" y1="464.0429" x2="132.632" y2="464.0429">
		<stop  offset="0" style="stop-color:#64CAF2"/>
		<stop  offset="0.0995" style="stop-color:#76CDEF"/>
		<stop  offset="0.3894" style="stop-color:#A4D5E9"/>
		<stop  offset="0.6466" style="stop-color:#C6DBE4"/>
		<stop  offset="0.8589" style="stop-color:#DBDFE1"/>
		<stop  offset="1" style="stop-color:#E2E0E0"/>
	</linearGradient>
	<polygon class="st49" points="56.06,474.31 82.69,527.58 132.63,400.51 	"/>
	<linearGradient id="SVGID_51_" gradientUnits="userSpaceOnUse" x1="215.8633" y1="546.5469" x2="264.2923" y2="546.5469">
		<stop  offset="0" style="stop-color:#64CAF2"/>
		<stop  offset="0.0995" style="stop-color:#76CDEF"/>
		<stop  offset="0.3894" style="stop-color:#A4D5E9"/>
		<stop  offset="0.6466" style="stop-color:#C6DBE4"/>
		<stop  offset="0.8589" style="stop-color:#DBDFE1"/>
		<stop  offset="1" style="stop-color:#E2E0E0"/>
	</linearGradient>
	<polygon class="st50" points="218.91,570.51 257.62,570.51 264.29,548.68 215.86,522.58 	"/>
	<linearGradient id="SVGID_52_" gradientUnits="userSpaceOnUse" x1="221.3762" y1="618.4313" x2="248.3447" y2="618.4313">
		<stop  offset="0" style="stop-color:#64CAF2"/>
		<stop  offset="0.0995" style="stop-color:#76CDEF"/>
		<stop  offset="0.3894" style="stop-color:#A4D5E9"/>
		<stop  offset="0.6466" style="stop-color:#C6DBE4"/>
		<stop  offset="0.8589" style="stop-color:#DBDFE1"/>
		<stop  offset="1" style="stop-color:#E2E0E0"/>
	</linearGradient>
	<path class="st51" d="M248.34,615.33c-9.48-1.23-18.48-3.22-26.97-5.92l1.15,18.04L248.34,615.33z"/>
	<linearGradient id="SVGID_53_" gradientUnits="userSpaceOnUse" x1="181.461" y1="457.4896" x2="278.5307" y2="457.4896">
		<stop  offset="0" style="stop-color:#64CAF2"/>
		<stop  offset="0.0995" style="stop-color:#76CDEF"/>
		<stop  offset="0.3894" style="stop-color:#A4D5E9"/>
		<stop  offset="0.6466" style="stop-color:#C6DBE4"/>
		<stop  offset="0.8589" style="stop-color:#DBDFE1"/>
		<stop  offset="1" style="stop-color:#E2E0E0"/>
	</linearGradient>
	<polygon class="st52" points="215.86,522.58 278.53,396.75 275.58,392.4 181.46,486.52 	"/>
	<linearGradient id="SVGID_54_" gradientUnits="userSpaceOnUse" x1="156.4916" y1="299.7896" x2="276.6124" y2="299.7896">
		<stop  offset="0" style="stop-color:#64CAF2"/>
		<stop  offset="0.0995" style="stop-color:#76CDEF"/>
		<stop  offset="0.3894" style="stop-color:#A4D5E9"/>
		<stop  offset="0.6466" style="stop-color:#C6DBE4"/>
		<stop  offset="0.8589" style="stop-color:#DBDFE1"/>
		<stop  offset="1" style="stop-color:#E2E0E0"/>
	</linearGradient>
	<path class="st53" d="M202.28,328.08c21.65-22.73,47.04-42.06,74.34-56.59l-120.12,26.92L202.28,328.08z"/>
	<linearGradient id="SVGID_55_" gradientUnits="userSpaceOnUse" x1="264.4017" y1="356.7986" x2="297.7491" y2="356.7986">
		<stop  offset="0" style="stop-color:#64CAF2"/>
		<stop  offset="0.0995" style="stop-color:#76CDEF"/>
		<stop  offset="0.3894" style="stop-color:#A4D5E9"/>
		<stop  offset="0.6466" style="stop-color:#C6DBE4"/>
		<stop  offset="0.8589" style="stop-color:#DBDFE1"/>
		<stop  offset="1" style="stop-color:#E2E0E0"/>
	</linearGradient>
	<polygon class="st54" points="289.19,370.94 297.75,342.66 264.4,368.35 268.41,370.94 	"/>
	<linearGradient id="SVGID_56_" gradientUnits="userSpaceOnUse" x1="292.3274" y1="447.2891" x2="333.2664" y2="447.2891">
		<stop  offset="0" style="stop-color:#64CAF2"/>
		<stop  offset="0.0995" style="stop-color:#76CDEF"/>
		<stop  offset="0.3894" style="stop-color:#A4D5E9"/>
		<stop  offset="0.6466" style="stop-color:#C6DBE4"/>
		<stop  offset="0.8589" style="stop-color:#DBDFE1"/>
		<stop  offset="1" style="stop-color:#E2E0E0"/>
	</linearGradient>
	<polygon class="st55" points="303.66,477.48 333.27,477.48 292.33,417.1 	"/>
	<linearGradient id="SVGID_57_" gradientUnits="userSpaceOnUse" x1="314.921" y1="523.9956" x2="405.773" y2="523.9956">
		<stop  offset="0" style="stop-color:#64CAF2"/>
		<stop  offset="0.0995" style="stop-color:#76CDEF"/>
		<stop  offset="0.3894" style="stop-color:#A4D5E9"/>
		<stop  offset="0.6466" style="stop-color:#C6DBE4"/>
		<stop  offset="0.8589" style="stop-color:#DBDFE1"/>
		<stop  offset="1" style="stop-color:#E2E0E0"/>
	</linearGradient>
	<polygon class="st56" points="333.27,477.48 314.92,537.49 321.12,570.51 330.83,570.51 405.77,477.48 	"/>
	<linearGradient id="SVGID_58_" gradientUnits="userSpaceOnUse" x1="351.4414" y1="558.3052" x2="422.567" y2="558.3052">
		<stop  offset="0" style="stop-color:#64CAF2"/>
		<stop  offset="0.0995" style="stop-color:#76CDEF"/>
		<stop  offset="0.3894" style="stop-color:#A4D5E9"/>
		<stop  offset="0.6466" style="stop-color:#C6DBE4"/>
		<stop  offset="0.8589" style="stop-color:#DBDFE1"/>
		<stop  offset="1" style="stop-color:#E2E0E0"/>
	</linearGradient>
	<path class="st57" d="M393.91,570.51c9.96-7.61,19.52-15.79,28.66-24.41l-71.13,24.41H393.91z"/>
	<linearGradient id="SVGID_59_" gradientUnits="userSpaceOnUse" x1="483.2321" y1="277.527" x2="515.6772" y2="277.527">
		<stop  offset="0" style="stop-color:#64CAF2"/>
		<stop  offset="0.0995" style="stop-color:#76CDEF"/>
		<stop  offset="0.3894" style="stop-color:#A4D5E9"/>
		<stop  offset="0.6466" style="stop-color:#C6DBE4"/>
		<stop  offset="0.8589" style="stop-color:#DBDFE1"/>
		<stop  offset="1" style="stop-color:#E2E0E0"/>
	</linearGradient>
	<path class="st58" d="M508.12,308.39l7.56-12.97c-4.65-17.89-12.09-34.27-22.03-48.76l-10.42,30.03
		C493.28,285.77,501.61,296.45,508.12,308.39z"/>
	<linearGradient id="SVGID_60_" gradientUnits="userSpaceOnUse" x1="425.3481" y1="421.8755" x2="449.6229" y2="421.8755">
		<stop  offset="0" style="stop-color:#64CAF2"/>
		<stop  offset="0.0995" style="stop-color:#76CDEF"/>
		<stop  offset="0.3894" style="stop-color:#A4D5E9"/>
		<stop  offset="0.6466" style="stop-color:#C6DBE4"/>
		<stop  offset="0.8589" style="stop-color:#DBDFE1"/>
		<stop  offset="1" style="stop-color:#E2E0E0"/>
	</linearGradient>
	<polygon class="st59" points="427.51,446.7 449.62,408.76 441.49,397.05 425.35,443.58 	"/>
	<linearGradient id="SVGID_61_" gradientUnits="userSpaceOnUse" x1="134.8303" y1="125.3904" x2="239.2488" y2="125.3904">
		<stop  offset="0" style="stop-color:#64CAF2"/>
		<stop  offset="0.0995" style="stop-color:#76CDEF"/>
		<stop  offset="0.3894" style="stop-color:#A4D5E9"/>
		<stop  offset="0.6466" style="stop-color:#C6DBE4"/>
		<stop  offset="0.8589" style="stop-color:#DBDFE1"/>
		<stop  offset="1" style="stop-color:#E2E0E0"/>
	</linearGradient>
	<path class="st60" d="M239.25,150.57l-76.79-66.6c-10.9,12.3-19.41,26.54-24.07,41.78l-3.55,11.62l99.45,29.43L239.25,150.57z"/>
	<linearGradient id="SVGID_62_" gradientUnits="userSpaceOnUse" x1="41.5192" y1="478.7545" x2="56.0593" y2="478.7545">
		<stop  offset="0" style="stop-color:#64CAF2"/>
		<stop  offset="0.0995" style="stop-color:#76CDEF"/>
		<stop  offset="0.3894" style="stop-color:#A4D5E9"/>
		<stop  offset="0.6466" style="stop-color:#C6DBE4"/>
		<stop  offset="0.8589" style="stop-color:#DBDFE1"/>
		<stop  offset="1" style="stop-color:#E2E0E0"/>
	</linearGradient>
	<path class="st61" d="M41.52,477.38c0.02,1.96,0.11,3.89,0.19,5.82l14.35-8.89L41.52,477.38z"/>
	<linearGradient id="SVGID_63_" gradientUnits="userSpaceOnUse" x1="48.5222" y1="540.6656" x2="82.6932" y2="540.6656">
		<stop  offset="0" style="stop-color:#64CAF2"/>
		<stop  offset="0.0995" style="stop-color:#76CDEF"/>
		<stop  offset="0.3894" style="stop-color:#A4D5E9"/>
		<stop  offset="0.6466" style="stop-color:#C6DBE4"/>
		<stop  offset="0.8589" style="stop-color:#DBDFE1"/>
		<stop  offset="1" style="stop-color:#E2E0E0"/>
	</linearGradient>
	<path class="st62" d="M48.52,525.85c3.06,10.44,7.09,20.34,12.04,29.62l22.14-27.9L48.52,525.85z"/>
	<linearGradient id="SVGID_64_" gradientUnits="userSpaceOnUse" x1="433.3746" y1="502.9356" x2="441.7377" y2="502.9356">
		<stop  offset="0" style="stop-color:#64CAF2"/>
		<stop  offset="0.0995" style="stop-color:#76CDEF"/>
		<stop  offset="0.3894" style="stop-color:#A4D5E9"/>
		<stop  offset="0.6466" style="stop-color:#C6DBE4"/>
		<stop  offset="0.8589" style="stop-color:#DBDFE1"/>
		<stop  offset="1" style="stop-color:#E2E0E0"/>
	</linearGradient>
	<polygon class="st63" points="440.44,505.05 441.74,500.82 433.37,502.61 	"/>
	<linearGradient id="SVGID_65_" gradientUnits="userSpaceOnUse" x1="419.8082" y1="405.3351" x2="441.486" y2="405.3351">
		<stop  offset="0" style="stop-color:#64CAF2"/>
		<stop  offset="0.0995" style="stop-color:#76CDEF"/>
		<stop  offset="0.3894" style="stop-color:#A4D5E9"/>
		<stop  offset="0.6466" style="stop-color:#C6DBE4"/>
		<stop  offset="0.8589" style="stop-color:#DBDFE1"/>
		<stop  offset="1" style="stop-color:#E2E0E0"/>
	</linearGradient>
	<polygon class="st64" points="425.35,443.58 441.49,397.05 420.65,367.09 419.81,435.6 	"/>
	<linearGradient id="SVGID_66_" gradientUnits="userSpaceOnUse" x1="459.8124" y1="260.0577" x2="493.6478" y2="260.0577">
		<stop  offset="0" style="stop-color:#64CAF2"/>
		<stop  offset="0.0995" style="stop-color:#76CDEF"/>
		<stop  offset="0.3894" style="stop-color:#A4D5E9"/>
		<stop  offset="0.6466" style="stop-color:#C6DBE4"/>
		<stop  offset="0.8589" style="stop-color:#DBDFE1"/>
		<stop  offset="1" style="stop-color:#E2E0E0"/>
	</linearGradient>
	<path class="st65" d="M483.23,276.69l10.42-30.03c-0.74-1.08-1.46-2.18-2.23-3.24l-31.61,16.69
		C468.38,264.82,476.22,270.36,483.23,276.69z"/>
	<linearGradient id="SVGID_67_" gradientUnits="userSpaceOnUse" x1="459.7613" y1="251.7651" x2="491.4221" y2="251.7651">
		<stop  offset="0" style="stop-color:#64CAF2"/>
		<stop  offset="0.0995" style="stop-color:#76CDEF"/>
		<stop  offset="0.3894" style="stop-color:#A4D5E9"/>
		<stop  offset="0.6466" style="stop-color:#C6DBE4"/>
		<stop  offset="0.8589" style="stop-color:#DBDFE1"/>
		<stop  offset="1" style="stop-color:#E2E0E0"/>
	</linearGradient>
	<path class="st66" d="M459.81,260.11l31.61-16.69c0,0,0,0,0,0l-31.66,16.66C459.78,260.09,459.8,260.1,459.81,260.11z"/>
	<linearGradient id="SVGID_68_" gradientUnits="userSpaceOnUse" x1="89.9065" y1="344.2243" x2="165.0664" y2="344.2243">
		<stop  offset="0" style="stop-color:#64CAF2"/>
		<stop  offset="0.0995" style="stop-color:#76CDEF"/>
		<stop  offset="0.3894" style="stop-color:#A4D5E9"/>
		<stop  offset="0.6466" style="stop-color:#C6DBE4"/>
		<stop  offset="0.8589" style="stop-color:#DBDFE1"/>
		<stop  offset="1" style="stop-color:#E2E0E0"/>
	</linearGradient>
	<path class="st67" d="M89.91,296.19l66.54,96.06c2.67-5.26,5.57-10.42,8.62-15.5l-8.57-78.34L89.91,296.19z"/>
	<linearGradient id="SVGID_69_" gradientUnits="userSpaceOnUse" x1="82.6932" y1="516.856" x2="138.3989" y2="516.856">
		<stop  offset="0" style="stop-color:#64CAF2"/>
		<stop  offset="0.0995" style="stop-color:#76CDEF"/>
		<stop  offset="0.3894" style="stop-color:#A4D5E9"/>
		<stop  offset="0.6466" style="stop-color:#C6DBE4"/>
		<stop  offset="0.8589" style="stop-color:#DBDFE1"/>
		<stop  offset="1" style="stop-color:#E2E0E0"/>
	</linearGradient>
	<path class="st68" d="M138.4,525.49c-1.82-6.22-3.18-12.69-4.13-19.35l-51.57,21.44L138.4,525.49z"/>
	<linearGradient id="SVGID_70_" gradientUnits="userSpaceOnUse" x1="155.9507" y1="505.6722" x2="215.8633" y2="505.6722">
		<stop  offset="0" style="stop-color:#64CAF2"/>
		<stop  offset="0.0995" style="stop-color:#76CDEF"/>
		<stop  offset="0.3894" style="stop-color:#A4D5E9"/>
		<stop  offset="0.6466" style="stop-color:#C6DBE4"/>
		<stop  offset="0.8589" style="stop-color:#DBDFE1"/>
		<stop  offset="1" style="stop-color:#E2E0E0"/>
	</linearGradient>
	<polygon class="st69" points="181.46,486.52 165.66,493.09 155.95,524.83 215.86,522.58 	"/>
	<linearGradient id="SVGID_71_" gradientUnits="userSpaceOnUse" x1="82.6932" y1="582.5782" x2="209.535" y2="582.5782">
		<stop  offset="0" style="stop-color:#64CAF2"/>
		<stop  offset="0.0995" style="stop-color:#76CDEF"/>
		<stop  offset="0.3894" style="stop-color:#A4D5E9"/>
		<stop  offset="0.6466" style="stop-color:#C6DBE4"/>
		<stop  offset="0.8589" style="stop-color:#DBDFE1"/>
		<stop  offset="1" style="stop-color:#E2E0E0"/>
	</linearGradient>
	<path class="st70" d="M87.87,591.93c29.19,28.36,70.94,45.26,121.67,45.65l-126.84-110L87.87,591.93z"/>
	<linearGradient id="SVGID_72_" gradientUnits="userSpaceOnUse" x1="156.4916" y1="244.1467" x2="317.757" y2="244.1467">
		<stop  offset="0" style="stop-color:#64CAF2"/>
		<stop  offset="0.0995" style="stop-color:#76CDEF"/>
		<stop  offset="0.3894" style="stop-color:#A4D5E9"/>
		<stop  offset="0.6466" style="stop-color:#C6DBE4"/>
		<stop  offset="0.8589" style="stop-color:#DBDFE1"/>
		<stop  offset="1" style="stop-color:#E2E0E0"/>
	</linearGradient>
	<path class="st71" d="M276.61,271.5c13.34-7.1,27.12-13.09,41.14-17.72l-39.78-63.9c-9.7,2.85-19.33,6.16-28.84,10.01l-92.65,98.52
		L276.61,271.5z"/>
	<linearGradient id="SVGID_73_" gradientUnits="userSpaceOnUse" x1="173.4796" y1="436.1039" x2="275.5795" y2="436.1039">
		<stop  offset="0" style="stop-color:#64CAF2"/>
		<stop  offset="0.0995" style="stop-color:#76CDEF"/>
		<stop  offset="0.3894" style="stop-color:#A4D5E9"/>
		<stop  offset="0.6466" style="stop-color:#C6DBE4"/>
		<stop  offset="0.8589" style="stop-color:#DBDFE1"/>
		<stop  offset="1" style="stop-color:#E2E0E0"/>
	</linearGradient>
	<polygon class="st72" points="275.58,392.4 271.03,385.69 229.1,395.63 173.48,438.63 181.46,486.52 	"/>
	<linearGradient id="SVGID_74_" gradientUnits="userSpaceOnUse" x1="330.8307" y1="523.9956" x2="417.981" y2="523.9956">
		<stop  offset="0" style="stop-color:#64CAF2"/>
		<stop  offset="0.0995" style="stop-color:#76CDEF"/>
		<stop  offset="0.3894" style="stop-color:#A4D5E9"/>
		<stop  offset="0.6466" style="stop-color:#C6DBE4"/>
		<stop  offset="0.8589" style="stop-color:#DBDFE1"/>
		<stop  offset="1" style="stop-color:#E2E0E0"/>
	</linearGradient>
	<polygon class="st73" points="417.98,477.48 405.77,477.48 330.83,570.51 338.37,570.51 413.95,522.58 	"/>
	<linearGradient id="SVGID_75_" gradientUnits="userSpaceOnUse" x1="508.1165" y1="316.9548" x2="520.8389" y2="316.9548">
		<stop  offset="0" style="stop-color:#64CAF2"/>
		<stop  offset="0.0995" style="stop-color:#76CDEF"/>
		<stop  offset="0.3894" style="stop-color:#A4D5E9"/>
		<stop  offset="0.6466" style="stop-color:#C6DBE4"/>
		<stop  offset="0.8589" style="stop-color:#DBDFE1"/>
		<stop  offset="1" style="stop-color:#E2E0E0"/>
	</linearGradient>
	<path class="st74" d="M519.82,338.49l1.02-11.72c-0.81-10.87-2.56-21.34-5.16-31.35l-7.56,12.97
		C513.18,317.69,517.11,327.76,519.82,338.49z"/>
	<linearGradient id="SVGID_76_" gradientUnits="userSpaceOnUse" x1="427.5098" y1="429.0921" x2="456.758" y2="429.0921">
		<stop  offset="0" style="stop-color:#64CAF2"/>
		<stop  offset="0.0995" style="stop-color:#76CDEF"/>
		<stop  offset="0.3894" style="stop-color:#A4D5E9"/>
		<stop  offset="0.6466" style="stop-color:#C6DBE4"/>
		<stop  offset="0.8589" style="stop-color:#DBDFE1"/>
		<stop  offset="1" style="stop-color:#E2E0E0"/>
	</linearGradient>
	<polygon class="st75" points="429.4,449.43 456.76,419.02 449.62,408.76 427.51,446.7 	"/>
</g>
</svg>
